<svg xmlns="http://www.w3.org/2000/svg" width="1536" height="1024" viewBox="0 0 1536 1024">
<path d="M 581.0,231.5 L 469.5,196.0 L 577.0,160.5 L 580.5,182.0 L 581.0,231.5 Z M 542.5,210.0 L 553.5,193.0 L 551.5,184.0 L 546.0,180.5 L 540.0,181.5 L 535.5,187.0 L 536.5,194.0 L 542.5,198.0 L 540.5,205.0 L 540.5,210.0 L 542.5,210.0 Z M 842.0,206.5 L 775.5,206.0 L 842.0,206.5 Z M 830.0,422.5 L 782.0,418.5 L 781.5,416.0 L 814.0,337.5 L 864.0,341.5 L 865.5,344.0 L 859.5,358.0 L 846.0,361.5 L 842.5,366.0 L 842.5,370.0 L 836.5,377.0 L 837.5,381.0 L 833.5,388.0 L 836.5,393.0 L 835.5,399.0 L 839.5,404.0 L 830.0,422.5 Z M 609.0,434.5 L 609.0,432.5 L 638.5,433.0 L 609.0,434.5 Z M 1024.0,479.5 L 1002.5,479.0 L 1024.0,477.5 L 1024.0,479.5 Z M 780.0,574.5 L 720.5,574.0 L 780.0,574.5 Z M 756.0,591.5 L 679.5,591.0 L 681.0,589.5 L 756.0,591.5 Z M 845.0,591.5 L 793.5,591.0 L 845.0,591.5 Z M 612.0,609.5 L 592.5,609.0 L 612.0,609.5 Z M 706.0,610.5 L 671.5,610.0 L 706.0,610.5 Z M 846.0,610.5 L 812.5,610.0 L 846.0,610.5 Z M 568.0,708.5 L 568.0,684.5 L 568.0,708.5 Z M 534.0,720.5 L 534.0,693.5 L 534.0,720.5 Z M 426.0,729.5 L 388.5,729.0 L 426.0,729.5 Z M 478.0,729.5 L 448.5,729.0 L 478.0,729.5 Z M 517.0,729.5 L 488.5,729.0 L 517.0,729.5 Z M 583.0,729.5 L 526.5,729.0 L 583.0,729.5 Z M 730.0,729.5 L 699.5,729.0 L 730.0,729.5 Z M 767.0,729.5 L 744.5,729.0 L 767.0,729.5 Z M 811.0,729.5 L 781.5,729.0 L 811.0,729.5 Z M 848.0,729.5 L 819.5,729.0 L 848.0,729.5 Z M 885.0,729.5 L 864.5,729.0 L 885.0,729.5 Z M 936.0,729.5 L 905.5,729.0 L 936.0,729.5 Z M 1019.0,729.5 L 962.5,729.0 L 1019.0,729.5 Z M 1062.0,729.5 L 1033.5,729.0 L 1062.0,729.5 Z M 1099.0,729.5 L 1078.5,729.0 L 1099.0,729.5 Z M 509.0,784.5 L 500.0,781.5 L 495.5,774.0 L 497.5,764.0 L 505.0,758.5 L 513.0,758.5 L 518.5,762.0 L 515.0,765.5 L 512.0,763.5 L 506.0,763.5 L 501.5,768.0 L 501.5,775.0 L 508.0,779.5 L 514.5,777.0 L 514.0,774.5 L 508.5,774.0 L 509.0,769.5 L 518.0,769.5 L 519.5,771.0 L 518.5,781.0 L 509.0,784.5 Z M 542.0,784.5 L 531.5,780.0 L 528.5,769.0 L 534.0,760.5 L 546.0,758.5 L 550.5,761.0 L 554.5,767.0 L 554.5,776.0 L 549.0,782.5 L 542.0,784.5 Z M 544.5,779.0 L 548.5,776.0 L 549.5,769.0 L 545.0,763.5 L 539.0,763.5 L 534.5,768.0 L 534.5,775.0 L 540.0,779.5 L 544.5,779.0 Z M 582.0,783.5 L 565.5,783.0 L 566.0,758.5 L 570.5,759.0 L 570.5,778.0 L 572.0,779.5 L 582.0,779.5 L 582.0,783.5 Z M 597.0,783.5 L 592.5,783.0 L 591.5,761.0 L 593.0,758.5 L 609.0,758.5 L 610.5,762.0 L 609.0,763.5 L 597.5,764.0 L 598.0,769.5 L 608.0,769.5 L 608.5,773.0 L 599.0,773.5 L 597.0,783.5 Z M 646.0,783.5 L 641.5,783.0 L 641.5,764.0 L 634.0,763.5 L 634.0,758.5 L 653.0,758.5 L 654.5,760.0 L 654.0,763.5 L 646.5,764.0 L 646.0,783.5 Z M 685.0,783.5 L 680.0,783.5 L 674.0,775.5 L 669.5,776.0 L 669.0,783.5 L 663.5,783.0 L 665.0,758.5 L 678.0,758.5 L 684.5,763.0 L 685.5,770.0 L 680.5,776.0 L 685.5,782.0 L 685.0,783.5 Z M 678.5,770.0 L 680.5,767.0 L 678.0,763.5 L 669.5,764.0 L 670.0,770.5 L 678.5,770.0 Z M 718.0,783.5 L 713.5,783.0 L 713.5,760.0 L 715.0,758.5 L 731.0,759.5 L 734.5,764.0 L 733.5,772.0 L 728.0,775.5 L 719.0,775.5 L 718.0,783.5 Z M 728.5,770.0 L 729.5,766.0 L 727.0,763.5 L 718.5,764.0 L 719.0,770.5 L 728.5,770.0 Z M 766.0,783.5 L 760.5,783.0 L 760.5,760.0 L 762.0,758.5 L 778.0,759.5 L 782.5,765.0 L 782.5,769.0 L 776.0,775.5 L 767.0,775.5 L 766.0,783.5 Z M 775.5,770.0 L 776.0,764.5 L 766.5,764.0 L 767.0,770.5 L 775.5,770.0 Z M 808.0,783.5 L 791.5,783.0 L 792.0,759.5 L 796.0,758.5 L 797.5,760.0 L 797.5,778.0 L 808.0,779.5 L 808.0,783.5 Z M 840.0,783.5 L 835.0,783.5 L 833.0,779.5 L 823.0,779.5 L 820.0,783.5 L 815.5,783.0 L 826.0,758.5 L 830.5,759.0 L 840.0,783.5 Z M 830.5,774.0 L 828.0,767.5 L 824.5,774.0 L 830.5,774.0 Z M 871.0,783.5 L 867.0,783.5 L 856.0,769.5 L 854.5,783.0 L 849.5,783.0 L 849.5,760.0 L 851.0,758.5 L 855.0,759.5 L 865.0,772.5 L 865.5,760.0 L 867.0,758.5 L 871.5,760.0 L 871.0,783.5 Z M 904.0,783.5 L 900.0,783.5 L 889.0,769.5 L 888.5,783.0 L 883.5,783.0 L 884.0,758.5 L 888.0,759.5 L 899.0,773.5 L 899.5,759.0 L 904.5,759.0 L 904.0,783.5 Z M 935.0,783.5 L 916.5,783.0 L 916.5,760.0 L 918.0,758.5 L 934.5,759.0 L 934.0,763.5 L 923.0,763.5 L 921.5,765.0 L 923.0,769.5 L 933.5,770.0 L 933.0,773.5 L 923.0,773.5 L 921.5,778.0 L 935.0,779.5 L 935.0,783.5 Z M 967.0,783.5 L 961.0,783.5 L 956.0,775.5 L 951.5,776.0 L 950.0,783.5 L 945.5,783.0 L 946.0,758.5 L 960.0,758.5 L 966.5,763.0 L 967.5,769.0 L 961.5,775.0 L 967.0,783.5 Z M 959.5,770.0 L 961.5,766.0 L 959.0,763.5 L 952.0,763.5 L 950.5,765.0 L 952.0,770.5 L 959.5,770.0 Z M 701.0,783.5 L 696.5,783.0 L 697.0,759.5 L 701.5,760.0 L 701.0,783.5 Z M 471.0,772.5 L 402.0,772.5 L 401.5,770.0 L 472.0,769.5 L 471.0,772.5 Z M 1070.0,772.5 L 991.0,772.5 L 989.5,770.0 L 1070.0,769.5 L 1070.0,772.5 Z" fill="#bfb7a5" fill-rule="evenodd"/>
<path d="M 736.0,262.5 L 730.0,261.5 L 726.0,256.5 L 719.0,254.5 L 694.0,254.5 L 686.0,256.5 L 685.5,254.0 L 688.0,248.5 L 699.0,251.5 L 731.0,248.5 L 746.0,250.5 L 762.5,257.0 L 762.0,258.5 L 742.0,257.5 L 736.0,262.5 Z M 733.0,325.5 L 718.0,325.5 L 707.0,322.5 L 695.0,316.5 L 686.0,309.5 L 678.5,298.0 L 676.5,288.0 L 670.0,288.5 L 663.5,282.0 L 660.5,274.0 L 661.5,264.0 L 667.0,260.5 L 671.0,261.5 L 674.5,264.0 L 676.5,271.0 L 681.0,273.5 L 682.5,265.0 L 686.0,262.5 L 692.0,262.5 L 692.5,271.0 L 695.5,279.0 L 706.0,284.5 L 720.0,283.5 L 726.5,277.0 L 729.5,269.0 L 735.0,268.5 L 739.5,284.0 L 738.0,288.5 L 722.0,288.5 L 708.0,295.5 L 699.5,294.0 L 708.0,302.5 L 718.0,305.5 L 726.0,305.5 L 730.0,303.5 L 738.0,306.5 L 747.0,305.5 L 751.0,303.5 L 754.5,298.0 L 748.0,296.5 L 742.5,291.0 L 743.5,286.0 L 748.0,287.5 L 761.0,286.5 L 760.5,294.0 L 753.5,310.0 L 742.0,321.5 L 733.0,325.5 Z M 673.5,276.0 L 672.5,271.0 L 670.0,268.5 L 671.5,276.0 L 673.5,276.0 Z M 732.5,313.0 L 736.5,311.0 L 736.0,308.5 L 722.5,309.0 L 726.0,312.5 L 732.5,313.0 Z M 692.0,445.5 L 680.0,444.5 L 674.5,435.0 L 655.5,420.0 L 661.0,415.5 L 676.0,408.5 L 685.0,406.5 L 688.0,410.5 L 741.0,390.5 L 746.5,385.0 L 753.5,370.0 L 760.0,363.5 L 774.0,360.5 L 788.5,361.0 L 788.5,363.0 L 785.0,365.5 L 775.0,366.5 L 766.5,370.0 L 767.0,371.5 L 784.5,372.0 L 782.0,376.5 L 769.5,380.0 L 770.0,381.5 L 780.5,383.0 L 777.0,387.5 L 770.5,390.0 L 771.0,391.5 L 776.5,392.0 L 773.0,399.5 L 761.0,407.5 L 754.0,408.5 L 740.0,420.5 L 720.0,433.5 L 692.0,445.5 Z M 869.0,373.5 L 852.0,372.5 L 848.5,370.0 L 848.5,368.0 L 855.0,365.5 L 871.0,366.5 L 872.5,369.0 L 869.0,373.5 Z M 865.0,383.5 L 846.0,381.5 L 843.5,380.0 L 843.5,377.0 L 845.0,375.5 L 852.0,375.5 L 869.0,377.5 L 868.5,381.0 L 865.0,383.5 Z M 861.0,392.5 L 846.0,391.5 L 841.0,389.5 L 840.5,387.0 L 844.0,384.5 L 864.0,387.5 L 864.5,389.0 L 861.0,392.5 Z M 858.0,399.5 L 845.0,399.5 L 841.5,396.0 L 855.0,396.5 L 858.5,398.0 L 858.0,399.5 Z" fill="#f4ba91" fill-rule="evenodd"/>
<path d="M 795.0,188.5 L 756.5,188.0 L 795.0,188.5 Z M 878.0,221.5 L 851.5,221.0 L 878.0,221.5 Z M 706.0,244.5 L 697.5,244.0 L 710.0,241.5 L 711.5,243.0 L 706.0,244.5 Z M 766.0,270.5 L 760.0,268.5 L 758.5,265.0 L 766.0,264.5 L 766.0,270.5 Z M 522.0,296.5 L 507.5,295.0 L 516.0,293.5 L 522.0,296.5 Z M 520.0,347.5 L 515.5,341.0 L 517.0,338.5 L 585.5,339.0 L 584.0,343.5 L 521.0,343.5 L 520.0,347.5 Z M 575.0,367.5 L 517.0,367.5 L 516.5,364.0 L 518.0,361.5 L 578.0,361.5 L 578.5,365.0 L 575.0,367.5 Z M 524.0,432.5 L 520.5,432.0 L 519.5,427.0 L 519.5,395.0 L 522.5,376.0 L 523.5,379.0 L 527.0,380.5 L 528.0,375.5 L 528.5,431.0 L 524.0,432.5 Z M 526.5,422.0 L 526.0,411.5 L 526.5,422.0 Z M 521.5,421.0 L 521.0,418.5 L 521.5,421.0 Z M 527.5,430.0 L 527.0,428.5 L 527.5,430.0 Z M 523.5,431.0 L 521.5,431.0 L 523.5,431.0 Z M 559.0,427.5 L 557.5,386.0 L 558.5,376.0 L 560.0,375.5 L 560.5,426.0 L 559.0,427.5 Z M 559.5,395.0 L 559.0,388.5 L 559.5,395.0 Z M 591.0,424.5 L 588.5,424.0 L 589.0,412.5 L 591.0,424.5 Z M 934.0,475.5 L 928.0,475.5 L 902.0,454.5 L 886.0,446.5 L 864.5,440.0 L 886.0,431.5 L 923.0,427.5 L 915.5,429.0 L 942.0,434.5 L 962.0,441.5 L 986.0,454.5 L 1005.5,471.0 L 934.0,475.5 Z M 732.0,551.5 L 677.0,546.5 L 629.0,545.5 L 596.0,547.5 L 589.5,527.0 L 577.0,509.5 L 572.0,504.5 L 556.0,495.5 L 540.0,491.5 L 525.0,491.5 L 508.0,495.5 L 494.0,503.5 L 483.5,514.0 L 479.0,521.5 L 466.0,521.5 L 465.5,519.0 L 476.5,489.0 L 487.5,468.0 L 494.0,460.5 L 528.0,449.5 L 554.0,444.5 L 594.0,440.5 L 610.5,480.0 L 617.0,487.5 L 621.0,489.5 L 701.0,494.5 L 728.0,499.5 L 731.5,529.0 L 732.0,551.5 Z M 800.0,520.5 L 795.5,480.0 L 789.5,459.0 L 781.5,454.0 L 783.5,460.0 L 784.0,477.5 L 780.5,464.0 L 774.0,449.5 L 751.0,445.5 L 738.0,445.5 L 733.0,443.5 L 754.0,440.5 L 776.0,440.5 L 786.0,442.5 L 796.5,450.0 L 800.5,462.0 L 802.5,478.0 L 802.5,511.0 L 800.0,520.5 Z M 817.0,555.5 L 740.0,552.5 L 733.5,499.0 L 734.5,489.0 L 738.0,486.5 L 743.0,486.5 L 750.5,497.0 L 755.5,517.0 L 758.5,547.0 L 760.0,548.5 L 804.5,547.0 L 812.5,518.0 L 825.5,484.0 L 841.5,458.0 L 856.0,444.5 L 878.0,451.5 L 906.0,468.5 L 925.5,487.0 L 935.0,502.5 L 934.5,495.0 L 930.0,482.5 L 1025.0,479.5 L 1030.5,491.0 L 1030.5,500.0 L 1024.0,506.5 L 962.0,509.5 L 933.0,509.5 L 917.0,498.5 L 900.0,492.5 L 881.0,491.5 L 866.0,494.5 L 855.0,499.5 L 841.5,510.0 L 829.5,529.0 L 823.5,550.0 L 817.0,555.5 Z M 659.0,487.5 L 625.5,487.0 L 659.0,487.5 Z M 572.0,566.5 L 572.5,557.0 L 569.5,540.0 L 563.5,529.0 L 555.0,519.5 L 543.0,512.5 L 532.0,509.5 L 510.5,511.0 L 523.0,505.5 L 537.0,504.5 L 549.0,507.5 L 558.0,512.5 L 568.5,523.0 L 574.5,536.0 L 575.5,556.0 L 572.0,566.5 Z M 924.0,567.5 L 923.5,552.0 L 920.5,541.0 L 913.5,529.0 L 904.0,519.5 L 895.0,514.5 L 884.0,511.5 L 871.0,511.5 L 859.5,514.0 L 871.0,508.5 L 889.0,506.5 L 903.0,510.5 L 912.0,516.5 L 920.5,526.0 L 926.5,540.0 L 927.5,556.0 L 924.0,567.5 Z M 1040.0,566.5 L 1038.5,540.0 L 1030.5,522.0 L 1038.0,519.5 L 1043.0,520.5 L 1049.5,527.0 L 1055.5,542.0 L 1055.5,555.0 L 1052.0,560.5 L 1048.5,539.0 L 1043.5,530.0 L 1041.5,530.0 L 1043.5,538.0 L 1043.5,555.0 L 1040.0,566.5 Z M 938.0,568.5 L 938.5,551.0 L 934.0,529.5 L 940.5,544.0 L 940.5,561.0 L 938.0,568.5 Z M 982.0,544.5 L 961.0,544.5 L 958.5,538.0 L 961.0,536.5 L 999.0,534.5 L 1002.5,539.0 L 1001.0,543.5 L 982.0,544.5 Z M 614.0,592.5 L 590.5,592.0 L 614.0,592.5 Z M 745.0,610.5 L 720.5,610.0 L 745.0,610.5 Z M 812.0,610.5 L 749.5,610.0 L 812.0,610.5 Z M 477.0,666.5 L 448.5,666.0 L 477.0,666.5 Z M 517.0,666.5 L 492.5,666.0 L 517.0,666.5 Z M 579.0,666.5 L 528.5,666.0 L 579.0,666.5 Z M 740.0,666.5 L 685.5,666.0 L 740.0,666.5 Z M 949.0,666.5 L 891.5,666.0 L 949.0,666.5 Z M 1008.0,666.5 L 962.5,666.0 L 1008.0,666.5 Z M 1065.0,666.5 L 1038.5,666.0 L 1065.0,666.5 Z M 416.0,716.5 L 416.0,667.5 L 416.0,716.5 Z M 549.0,693.5 L 549.0,672.5 L 549.0,693.5 Z M 496.0,693.5 L 496.0,673.5 L 496.0,693.5 Z M 914.0,719.5 L 914.0,673.5 L 914.0,719.5 Z M 456.0,719.5 L 456.0,674.5 L 456.0,719.5 Z M 496.0,720.5 L 496.0,698.5 L 496.0,720.5 Z M 549.0,720.5 L 549.0,699.5 L 549.0,720.5 Z" fill="#718da1" fill-rule="evenodd"/>
<path d="M 795.0,182.5 L 757.5,182.0 L 795.0,182.5 Z M 754.0,224.5 L 749.0,218.5 L 739.0,214.5 L 714.0,212.5 L 710.0,210.5 L 690.0,212.5 L 686.5,212.0 L 689.0,210.5 L 685.0,210.5 L 681.5,212.0 L 686.0,213.5 L 674.0,217.5 L 670.5,216.0 L 681.0,210.5 L 697.0,206.5 L 724.0,205.5 L 736.0,207.5 L 746.0,211.5 L 752.5,218.0 L 754.0,224.5 Z M 837.0,221.5 L 759.5,221.0 L 837.0,221.5 Z M 779.0,245.5 L 761.0,240.5 L 733.0,240.5 L 712.0,244.5 L 706.5,244.0 L 711.0,243.5 L 710.0,241.5 L 702.5,242.0 L 733.0,235.5 L 755.0,235.5 L 771.0,239.5 L 779.0,245.5 Z M 589.0,316.5 L 580.0,315.5 L 584.5,314.0 L 579.5,313.0 L 586.0,312.5 L 589.5,315.0 L 589.0,316.5 Z M 857.0,335.5 L 834.0,333.5 L 828.0,330.5 L 829.5,328.0 L 826.5,327.0 L 839.0,327.5 L 841.0,324.5 L 842.0,327.5 L 844.0,326.5 L 857.0,329.5 L 857.0,335.5 Z M 585.0,338.5 L 517.5,338.0 L 585.0,338.5 Z M 584.0,344.5 L 543.5,344.0 L 584.0,344.5 Z M 577.0,361.5 L 519.5,361.0 L 577.0,361.5 Z M 529.0,385.5 L 528.5,376.0 L 527.0,380.5 L 523.5,379.0 L 523.0,375.5 L 522.0,379.5 L 522.0,374.5 L 529.5,375.0 L 529.0,385.5 Z M 561.0,418.5 L 561.0,377.5 L 561.0,418.5 Z M 557.0,408.5 L 557.0,387.5 L 557.0,408.5 Z M 528.0,427.5 L 528.0,389.5 L 528.0,427.5 Z M 519.0,426.5 L 519.0,398.5 L 519.0,426.5 Z M 591.0,425.5 L 587.5,425.0 L 588.0,404.5 L 589.5,409.0 L 588.5,424.0 L 591.0,425.5 Z M 771.0,426.5 L 749.5,426.0 L 771.0,426.5 Z M 803.0,508.5 L 803.0,482.5 L 803.0,508.5 Z M 725.0,487.5 L 659.5,487.0 L 725.0,487.5 Z M 790.0,548.5 L 759.5,548.0 L 790.0,548.5 Z M 650.0,609.5 L 622.5,609.0 L 650.0,609.5 Z M 888.0,609.5 L 864.5,609.0 L 888.0,609.5 Z M 442.0,650.5 L 373.5,650.0 L 442.0,650.5 Z M 722.0,720.5 L 722.0,671.5 L 722.0,720.5 Z M 1055.0,696.5 L 1055.0,671.5 L 1055.0,696.5 Z M 708.0,720.5 L 708.0,672.5 L 708.0,720.5 Z M 985.0,694.5 L 985.0,672.5 L 985.0,694.5 Z M 827.0,720.5 L 827.0,673.5 L 827.0,720.5 Z M 1041.0,720.5 L 1041.0,673.5 L 1041.0,720.5 Z M 841.0,696.5 L 841.0,675.5 L 841.0,696.5 Z M 1004.0,708.5 L 1004.0,684.5 L 1004.0,708.5 Z M 495.0,694.5 L 471.5,694.0 L 495.0,694.5 Z" fill="#4c6173" fill-rule="evenodd"/>
<path d="M 607.0,216.5 L 604.5,215.0 L 608.5,204.0 L 615.0,201.5 L 639.0,197.5 L 644.0,198.5 L 646.0,196.5 L 652.0,197.5 L 654.0,195.5 L 659.0,196.5 L 661.0,194.5 L 668.0,195.5 L 670.0,193.5 L 677.0,194.5 L 680.0,192.5 L 736.0,188.5 L 813.0,188.5 L 832.0,189.5 L 834.0,191.5 L 860.0,191.5 L 862.0,193.5 L 871.0,192.5 L 873.0,194.5 L 880.0,193.5 L 881.0,195.5 L 887.0,194.5 L 931.0,201.5 L 935.5,210.0 L 914.0,209.5 L 911.0,207.5 L 899.0,208.5 L 845.0,205.5 L 742.0,206.5 L 730.0,201.5 L 710.0,199.5 L 690.0,202.5 L 670.0,210.5 L 650.0,210.5 L 648.0,212.5 L 640.0,211.5 L 636.0,213.5 L 630.0,212.5 L 627.0,214.5 L 617.0,215.5 L 608.0,214.5 L 607.0,216.5 Z M 949.0,421.5 L 932.5,418.0 L 933.5,414.0 L 931.5,412.0 L 929.5,401.0 L 930.5,398.0 L 927.5,391.0 L 928.5,387.0 L 926.5,386.0 L 927.5,382.0 L 925.5,380.0 L 926.5,377.0 L 924.5,375.0 L 923.5,362.0 L 921.5,359.0 L 922.5,354.0 L 920.5,355.0 L 921.5,349.0 L 919.5,349.0 L 920.5,344.0 L 918.5,344.0 L 919.5,340.0 L 917.5,339.0 L 918.5,335.0 L 916.5,334.0 L 916.5,325.0 L 914.5,324.0 L 915.5,320.0 L 913.5,319.0 L 914.5,315.0 L 912.5,314.0 L 913.5,309.0 L 911.5,309.0 L 912.5,304.0 L 910.5,303.0 L 911.5,298.0 L 909.5,298.0 L 910.5,293.0 L 908.5,293.0 L 909.5,289.0 L 907.5,287.0 L 905.5,277.0 L 906.5,274.0 L 904.5,272.0 L 905.5,268.0 L 903.5,267.0 L 904.5,263.0 L 902.5,262.0 L 896.5,231.0 L 895.5,223.0 L 897.0,221.5 L 909.0,221.5 L 911.5,224.0 L 913.5,235.0 L 912.5,238.0 L 914.5,240.0 L 913.5,242.0 L 917.5,255.0 L 916.5,258.0 L 918.5,260.0 L 917.5,263.0 L 920.5,271.0 L 919.5,274.0 L 921.5,276.0 L 920.5,278.0 L 924.5,290.0 L 923.5,294.0 L 925.5,295.0 L 924.5,299.0 L 926.5,300.0 L 925.5,305.0 L 927.5,306.0 L 927.5,316.0 L 929.5,317.0 L 928.5,321.0 L 930.5,322.0 L 929.5,327.0 L 931.5,327.0 L 930.5,332.0 L 932.5,332.0 L 931.5,338.0 L 932.5,342.0 L 934.5,342.0 L 933.5,347.0 L 935.5,348.0 L 934.5,352.0 L 936.5,353.0 L 936.5,362.0 L 938.5,363.0 L 937.5,366.0 L 939.5,368.0 L 949.0,421.5 Z M 677.0,257.5 L 665.0,255.5 L 663.5,252.0 L 676.0,248.5 L 683.0,248.5 L 681.5,256.0 L 677.0,257.5 Z M 678.0,272.5 L 674.5,265.0 L 676.0,262.5 L 679.5,263.0 L 678.0,272.5 Z M 745.0,303.5 L 738.0,302.5 L 732.0,298.5 L 726.0,301.5 L 714.0,301.5 L 708.0,299.5 L 704.5,296.0 L 714.0,294.5 L 719.0,289.5 L 731.0,293.5 L 743.0,291.5 L 753.5,300.0 L 745.0,303.5 Z M 640.0,418.5 L 629.5,394.0 L 626.5,382.0 L 625.5,362.0 L 631.5,345.0 L 641.0,334.5 L 660.0,322.5 L 663.5,326.0 L 673.5,345.0 L 682.0,354.5 L 687.0,355.5 L 700.0,349.5 L 716.0,359.5 L 717.5,358.0 L 712.5,351.0 L 704.0,344.5 L 697.0,344.5 L 688.0,348.5 L 681.5,345.0 L 673.5,334.0 L 667.5,321.0 L 667.5,316.0 L 672.0,310.5 L 674.5,311.0 L 683.5,325.0 L 692.0,332.5 L 715.0,346.5 L 720.5,352.0 L 719.5,356.0 L 721.5,360.0 L 721.5,369.0 L 724.0,374.5 L 736.5,374.0 L 735.0,370.5 L 728.0,370.5 L 726.5,369.0 L 726.5,358.0 L 739.0,330.5 L 743.5,330.0 L 750.5,344.0 L 738.0,344.5 L 731.5,353.0 L 731.0,359.5 L 740.0,349.5 L 756.0,351.5 L 757.5,349.0 L 754.5,338.0 L 756.0,335.5 L 766.0,340.5 L 778.5,353.0 L 756.0,357.5 L 749.5,363.0 L 738.0,383.5 L 723.0,390.5 L 698.0,398.5 L 691.5,394.0 L 669.0,363.5 L 683.5,396.0 L 655.0,406.5 L 640.0,418.5 Z M 783.0,412.5 L 781.5,410.0 L 785.5,404.0 L 785.5,399.0 L 808.5,343.0 L 814.0,334.5 L 819.0,336.5 L 832.0,336.5 L 866.5,341.0 L 865.0,342.5 L 814.0,337.5 L 783.0,412.5 Z M 624.0,421.5 L 603.5,421.0 L 590.5,367.0 L 590.5,355.0 L 598.0,348.5 L 621.5,347.0 L 616.5,364.0 L 616.5,385.0 L 624.0,421.5 Z M 771.0,425.5 L 749.5,425.0 L 761.0,415.5 L 767.0,413.5 L 771.0,425.5 Z M 855.0,432.5 L 852.0,428.5 L 839.5,424.0 L 844.0,414.5 L 856.0,416.5 L 866.5,423.0 L 865.0,427.5 L 859.0,430.5 L 858.0,429.5 L 855.0,432.5 Z M 934.0,500.5 L 927.5,489.0 L 904.0,466.5 L 877.0,450.5 L 857.5,444.0 L 865.0,440.5 L 887.0,447.5 L 909.0,459.5 L 927.0,475.5 L 1006.5,471.0 L 991.0,457.5 L 963.0,441.5 L 937.0,432.5 L 917.5,429.0 L 937.0,429.5 L 939.0,431.5 L 943.0,430.5 L 944.0,432.5 L 947.0,431.5 L 968.0,437.5 L 989.0,447.5 L 1009.0,461.5 L 1023.5,477.0 L 1022.0,478.5 L 1002.0,479.5 L 930.0,481.5 L 928.5,483.0 L 933.5,494.0 L 934.0,500.5 Z M 673.0,474.5 L 669.5,473.0 L 668.5,462.0 L 666.5,460.0 L 667.5,458.0 L 659.0,442.5 L 648.0,438.5 L 613.0,437.5 L 609.5,434.0 L 649.0,433.5 L 660.0,436.5 L 668.5,446.0 L 671.5,457.0 L 673.0,474.5 Z M 465.0,520.5 L 462.5,519.0 L 464.5,516.0 L 463.5,513.0 L 465.5,512.0 L 464.5,509.0 L 474.5,478.0 L 483.5,461.0 L 492.0,453.5 L 514.0,445.5 L 516.0,446.5 L 527.0,442.5 L 530.0,443.5 L 532.0,441.5 L 536.0,442.5 L 538.0,440.5 L 542.0,441.5 L 544.0,439.5 L 586.0,435.5 L 593.5,437.0 L 593.0,440.5 L 574.0,441.5 L 535.0,447.5 L 495.0,459.5 L 484.5,472.0 L 476.5,488.0 L 467.5,514.0 L 465.5,515.0 L 465.0,520.5 Z M 726.0,498.5 L 695.0,493.5 L 650.0,491.5 L 642.0,489.5 L 630.0,490.5 L 626.5,488.0 L 727.0,487.5 L 726.0,498.5 Z M 534.0,579.5 L 524.0,579.5 L 514.0,575.5 L 507.5,569.0 L 503.5,561.0 L 502.5,552.0 L 507.5,538.0 L 516.0,530.5 L 524.0,527.5 L 532.0,527.5 L 542.0,531.5 L 549.5,539.0 L 553.5,549.0 L 553.5,559.0 L 550.5,567.0 L 544.0,574.5 L 534.0,579.5 Z M 531.5,564.0 L 536.5,561.0 L 539.5,553.0 L 533.0,543.5 L 526.0,542.5 L 517.5,550.0 L 517.5,556.0 L 522.0,562.5 L 526.0,564.5 L 531.5,564.0 Z M 884.0,581.5 L 876.0,581.5 L 866.0,577.5 L 858.5,570.0 L 855.5,564.0 L 856.5,562.0 L 854.5,561.0 L 854.5,551.0 L 858.5,541.0 L 866.0,533.5 L 876.0,529.5 L 884.0,529.5 L 895.0,534.5 L 900.5,540.0 L 905.5,554.0 L 904.5,563.0 L 900.5,571.0 L 894.0,577.5 L 884.0,581.5 Z M 883.5,566.0 L 889.5,561.0 L 890.5,553.0 L 886.0,546.5 L 878.0,544.5 L 869.5,551.0 L 868.5,557.0 L 875.0,565.5 L 883.5,566.0 Z M 873.0,610.5 L 846.5,610.0 L 873.0,610.5 Z M 405.0,649.5 L 382.5,649.0 L 405.0,649.5 Z M 399.0,716.5 L 399.0,657.5 L 399.0,716.5 Z M 842.0,695.5 L 842.0,671.5 L 842.0,695.5 Z M 929.0,720.5 L 929.0,671.5 L 929.0,720.5 Z M 511.0,721.5 L 511.0,673.5 L 511.0,721.5 Z M 970.0,695.5 L 970.0,673.5 L 970.0,695.5 Z M 826.0,721.5 L 826.0,693.5 L 826.0,721.5 Z M 495.0,699.5 L 471.5,699.0 L 495.0,699.5 Z M 783.0,710.5 L 762.5,710.0 L 783.0,710.5 Z M 565.0,783.5 L 565.0,758.5 L 565.0,783.5 Z M 571.0,778.5 L 571.0,758.5 L 571.0,778.5 Z M 702.0,783.5 L 701.0,759.5 L 696.5,760.0 L 695.5,783.0 L 696.0,758.5 L 702.5,759.0 L 702.0,783.5 Z M 883.0,783.5 L 883.0,758.5 L 883.0,783.5 Z M 905.0,783.5 L 905.0,758.5 L 905.0,783.5 Z M 641.0,783.5 L 640.5,765.0 L 635.0,763.5 L 641.5,764.0 L 641.0,783.5 Z M 647.0,780.5 L 646.5,764.0 L 654.0,763.5 L 647.5,765.0 L 647.0,780.5 Z M 471.0,769.5 L 401.5,769.0 L 471.0,769.5 Z M 1070.0,769.5 L 989.5,769.0 L 1070.0,769.5 Z M 471.0,773.5 L 401.5,773.0 L 471.0,773.5 Z M 1070.0,773.5 L 990.5,773.0 L 1070.0,773.5 Z" fill="#f3ede0" fill-rule="evenodd"/>
<path d="M 864.0,609.5 L 587.0,608.5 L 586.0,607.5 L 541.0,607.5 L 540.0,606.5 L 476.0,605.5 L 475.0,604.5 L 449.0,603.5 L 436.5,601.0 L 437.0,599.5 L 460.0,597.5 L 461.0,596.5 L 500.5,595.0 L 487.5,580.0 L 481.5,566.0 L 480.0,556.5 L 447.0,554.5 L 443.5,551.0 L 442.5,528.0 L 446.0,522.5 L 453.5,522.0 L 454.5,512.0 L 459.5,491.0 L 461.5,488.0 L 461.5,485.0 L 467.5,469.0 L 475.5,454.0 L 487.0,444.5 L 496.0,440.5 L 511.5,436.0 L 511.5,416.0 L 510.5,415.0 L 511.5,411.0 L 511.5,392.0 L 512.5,391.0 L 512.5,381.0 L 515.5,368.0 L 579.5,367.0 L 579.5,362.0 L 577.0,360.5 L 520.0,360.5 L 521.0,344.5 L 584.0,344.5 L 586.5,341.0 L 586.5,339.0 L 585.0,337.5 L 518.0,337.5 L 519.0,330.5 L 534.5,330.0 L 534.5,323.0 L 532.5,313.0 L 530.0,310.5 L 509.0,310.5 L 508.0,309.5 L 502.0,309.5 L 497.5,307.0 L 498.5,299.0 L 505.0,291.5 L 509.0,289.5 L 522.0,290.5 L 527.0,293.5 L 532.5,299.0 L 536.5,305.0 L 539.5,316.0 L 540.5,329.0 L 542.0,330.5 L 550.0,330.5 L 551.5,325.0 L 552.5,290.0 L 550.0,288.5 L 527.0,283.5 L 521.5,280.0 L 521.5,276.0 L 523.5,272.0 L 529.0,266.5 L 534.0,264.5 L 540.0,264.5 L 548.0,267.5 L 554.5,274.0 L 558.5,283.0 L 557.0,330.5 L 560.0,330.5 L 561.5,329.0 L 562.5,323.0 L 565.5,317.0 L 569.0,313.5 L 578.0,309.5 L 585.5,309.0 L 580.5,172.0 L 578.5,170.0 L 577.5,166.0 L 577.5,162.0 L 579.0,159.5 L 585.0,158.5 L 588.5,162.0 L 587.5,184.0 L 588.5,185.0 L 588.5,211.0 L 589.5,212.0 L 589.5,236.0 L 590.5,237.0 L 591.5,291.0 L 592.5,292.0 L 592.5,310.0 L 593.5,311.0 L 592.5,328.0 L 593.5,329.0 L 594.0,338.5 L 597.0,338.5 L 600.5,336.0 L 604.5,284.0 L 605.5,283.0 L 605.5,274.0 L 606.5,273.0 L 606.5,264.0 L 607.5,263.0 L 608.5,241.0 L 609.5,240.0 L 609.5,231.0 L 610.5,230.0 L 610.0,223.5 L 597.0,222.5 L 596.5,219.0 L 601.5,202.0 L 606.0,197.5 L 638.0,191.5 L 644.0,191.5 L 645.0,190.5 L 678.0,187.5 L 679.0,186.5 L 688.0,186.5 L 689.0,185.5 L 700.0,185.5 L 701.0,184.5 L 735.0,183.5 L 736.0,182.5 L 815.0,182.5 L 816.0,183.5 L 852.0,184.5 L 853.0,185.5 L 863.0,185.5 L 864.0,186.5 L 889.0,188.5 L 890.0,189.5 L 896.0,189.5 L 897.0,190.5 L 903.0,190.5 L 904.0,191.5 L 910.0,191.5 L 928.0,195.5 L 933.0,195.5 L 937.0,196.5 L 939.5,199.0 L 943.5,210.0 L 944.5,218.0 L 937.0,218.5 L 936.0,219.5 L 923.0,219.5 L 922.5,223.0 L 926.5,239.0 L 928.5,254.0 L 930.5,259.0 L 930.5,264.0 L 936.5,290.0 L 937.5,300.0 L 939.5,305.0 L 941.5,321.0 L 951.5,367.0 L 952.5,378.0 L 961.5,423.0 L 964.0,426.5 L 977.0,430.5 L 995.0,439.5 L 1011.0,450.5 L 1027.5,467.0 L 1032.5,474.0 L 1035.5,479.0 L 1039.5,491.0 L 1039.5,501.0 L 1036.5,509.0 L 1042.0,511.5 L 1051.5,521.0 L 1055.5,527.0 L 1060.5,539.0 L 1062.5,549.0 L 1062.5,560.0 L 1059.5,574.0 L 1051.5,588.0 L 1042.5,596.0 L 1070.0,598.5 L 1074.0,599.5 L 1074.5,601.0 L 1062.0,603.5 L 1008.0,605.5 L 1007.0,606.5 L 939.0,607.5 L 938.0,608.5 L 865.0,608.5 L 864.0,609.5 Z M 605.5,217.0 L 645.0,213.5 L 646.0,212.5 L 669.0,211.5 L 670.0,210.5 L 675.0,210.5 L 677.0,208.5 L 689.0,203.5 L 698.0,201.5 L 705.0,201.5 L 706.0,200.5 L 726.0,201.5 L 737.0,204.5 L 742.0,207.5 L 853.0,206.5 L 854.0,207.5 L 901.0,208.5 L 902.0,209.5 L 929.0,210.5 L 930.0,211.5 L 936.0,211.5 L 936.5,210.0 L 933.5,202.0 L 931.0,200.5 L 909.0,197.5 L 908.0,196.5 L 901.0,196.5 L 894.0,194.5 L 880.0,193.5 L 879.0,192.5 L 847.0,190.5 L 846.0,189.5 L 831.0,189.5 L 830.0,188.5 L 806.0,188.5 L 805.0,187.5 L 742.0,187.5 L 741.0,188.5 L 721.0,188.5 L 720.0,189.5 L 705.0,189.5 L 704.0,190.5 L 671.0,192.5 L 670.0,193.5 L 662.0,193.5 L 661.0,194.5 L 647.0,195.5 L 646.0,196.5 L 616.0,200.5 L 609.0,202.5 L 607.5,204.0 L 603.5,215.0 L 605.5,217.0 Z M 755.5,225.0 L 752.5,218.0 L 746.0,211.5 L 736.0,207.5 L 725.0,206.5 L 724.0,205.5 L 697.0,206.5 L 681.0,210.5 L 670.5,216.0 L 671.0,217.5 L 674.0,217.5 L 677.0,215.5 L 691.0,211.5 L 710.0,210.5 L 714.0,212.5 L 726.0,212.5 L 727.0,213.5 L 739.0,214.5 L 749.0,218.5 L 755.5,225.0 Z M 888.5,421.0 L 903.0,419.5 L 904.0,418.5 L 920.0,418.5 L 921.5,417.0 L 914.5,386.0 L 911.5,365.0 L 900.5,314.0 L 900.5,309.0 L 896.5,293.0 L 896.5,288.0 L 888.5,252.0 L 888.5,247.0 L 883.5,222.0 L 882.0,220.5 L 760.0,220.5 L 759.5,223.0 L 763.5,232.0 L 765.0,233.5 L 775.0,236.5 L 783.0,241.5 L 786.5,246.0 L 786.5,251.0 L 783.0,254.5 L 768.5,256.0 L 768.5,260.0 L 771.0,260.5 L 772.5,263.0 L 772.5,268.0 L 767.5,280.0 L 767.5,288.0 L 766.5,289.0 L 765.5,299.0 L 758.5,314.0 L 749.5,325.0 L 770.0,334.5 L 791.0,353.5 L 794.5,350.0 L 802.5,328.0 L 808.0,323.5 L 817.0,323.5 L 818.0,324.5 L 823.0,324.5 L 825.0,322.5 L 834.0,323.5 L 840.0,317.5 L 848.0,317.5 L 853.0,325.5 L 860.0,326.5 L 862.0,329.5 L 865.0,330.5 L 871.0,330.5 L 874.5,335.0 L 874.5,340.0 L 868.5,353.0 L 882.0,359.5 L 888.5,366.0 L 890.5,371.0 L 890.5,382.0 L 885.5,394.0 L 878.0,401.5 L 869.0,406.5 L 866.0,406.5 L 865.5,408.0 L 875.0,411.5 L 885.0,421.5 L 888.5,421.0 Z M 950.5,422.0 L 911.5,221.0 L 895.0,220.5 L 894.5,225.0 L 896.5,231.0 L 896.5,236.0 L 903.5,267.0 L 905.5,282.0 L 907.5,287.0 L 908.5,298.0 L 919.5,349.0 L 919.5,354.0 L 925.5,380.0 L 925.5,385.0 L 931.5,411.0 L 931.5,416.0 L 933.0,419.5 L 950.5,422.0 Z M 627.5,336.0 L 643.0,323.5 L 657.0,315.5 L 659.0,315.5 L 670.5,301.0 L 670.5,295.0 L 665.0,292.5 L 660.5,288.0 L 656.5,281.0 L 654.5,274.0 L 654.5,267.0 L 657.5,260.0 L 656.5,242.0 L 659.5,229.0 L 662.5,224.0 L 662.0,222.5 L 626.0,222.5 L 624.5,224.0 L 624.5,233.0 L 622.5,243.0 L 621.5,265.0 L 619.5,275.0 L 619.5,286.0 L 618.5,287.0 L 614.5,335.0 L 627.5,336.0 Z M 780.5,246.0 L 771.0,239.5 L 755.0,235.5 L 733.0,235.5 L 732.0,236.5 L 716.0,238.5 L 708.0,241.5 L 698.0,242.5 L 696.5,244.0 L 704.0,245.5 L 705.0,244.5 L 712.0,244.5 L 733.0,240.5 L 761.0,240.5 L 780.5,246.0 Z M 681.5,257.0 L 684.5,250.0 L 684.0,246.5 L 664.0,250.5 L 662.5,252.0 L 663.0,257.5 L 665.0,256.5 L 670.0,256.5 L 671.0,257.5 L 681.5,257.0 Z M 737.5,262.0 L 741.0,258.5 L 763.0,258.5 L 763.5,257.0 L 754.0,252.5 L 740.0,248.5 L 719.0,248.5 L 710.0,250.5 L 698.0,250.5 L 689.0,247.5 L 686.5,249.0 L 683.5,256.0 L 685.0,257.5 L 700.0,254.5 L 720.0,255.5 L 726.0,257.5 L 729.0,262.5 L 737.5,262.0 Z M 732.5,326.0 L 742.0,322.5 L 753.5,311.0 L 760.5,297.0 L 762.5,287.0 L 761.0,285.5 L 759.0,286.5 L 743.0,285.5 L 742.5,290.0 L 741.0,291.5 L 733.0,293.5 L 722.5,289.0 L 728.0,288.5 L 732.0,290.5 L 735.0,290.5 L 739.5,288.0 L 739.5,282.0 L 736.5,275.0 L 736.5,271.0 L 734.0,267.5 L 729.5,268.0 L 726.5,276.0 L 720.0,282.5 L 705.0,283.5 L 698.0,280.5 L 695.5,278.0 L 693.5,272.0 L 693.5,263.0 L 692.0,261.5 L 683.0,262.5 L 680.0,272.5 L 680.0,262.5 L 665.0,260.5 L 661.5,263.0 L 659.5,267.0 L 659.5,273.0 L 663.5,283.0 L 669.0,288.5 L 671.0,289.5 L 675.5,289.0 L 679.5,302.0 L 691.0,314.5 L 705.0,322.5 L 714.0,325.5 L 718.0,326.5 L 732.5,326.0 Z M 723.5,267.0 L 723.5,263.0 L 721.0,261.5 L 720.5,265.0 L 722.0,267.5 L 723.5,267.0 Z M 765.5,272.0 L 767.5,270.0 L 767.5,265.0 L 759.0,263.5 L 757.5,265.0 L 758.5,269.0 L 762.0,272.5 L 765.5,272.0 Z M 552.5,278.0 L 547.0,271.5 L 541.0,268.5 L 533.0,268.5 L 528.5,272.0 L 532.0,270.5 L 543.0,271.5 L 552.5,278.0 Z M 526.5,299.0 L 525.0,296.5 L 519.0,293.5 L 509.0,293.5 L 503.5,298.0 L 510.0,295.5 L 516.0,295.5 L 523.0,297.5 L 525.0,299.5 L 526.5,299.0 Z M 640.5,419.0 L 650.0,410.5 L 663.0,403.5 L 668.0,402.5 L 671.0,400.5 L 684.5,398.0 L 684.5,396.0 L 673.5,374.0 L 673.0,369.5 L 691.5,395.0 L 696.0,399.5 L 698.0,399.5 L 728.0,389.5 L 739.0,383.5 L 750.5,363.0 L 756.0,358.5 L 765.0,355.5 L 779.0,354.5 L 779.5,353.0 L 766.0,339.5 L 753.0,333.5 L 752.5,335.0 L 755.5,341.0 L 756.5,350.0 L 751.0,350.5 L 741.0,348.5 L 735.5,353.0 L 733.0,357.5 L 733.5,351.0 L 738.0,345.5 L 740.0,344.5 L 751.5,345.0 L 744.5,330.0 L 742.0,328.5 L 737.0,330.5 L 735.5,338.0 L 728.5,349.0 L 725.5,359.0 L 725.5,370.0 L 728.0,371.5 L 735.0,371.5 L 735.5,373.0 L 733.0,374.5 L 726.0,374.5 L 722.5,370.0 L 721.5,352.0 L 715.0,345.5 L 692.0,331.5 L 679.5,319.0 L 674.5,311.0 L 674.5,309.0 L 673.0,308.5 L 666.5,316.0 L 666.5,321.0 L 671.5,332.0 L 680.5,345.0 L 686.0,349.5 L 697.0,345.5 L 705.0,345.5 L 715.5,357.0 L 714.0,357.5 L 703.0,349.5 L 698.0,349.5 L 687.0,354.5 L 682.0,353.5 L 670.5,339.0 L 662.0,321.5 L 651.0,326.5 L 641.0,333.5 L 630.5,345.0 L 625.5,357.0 L 625.5,363.0 L 624.5,364.0 L 624.5,373.0 L 625.5,374.0 L 625.5,381.0 L 627.5,390.0 L 635.5,412.0 L 638.5,418.0 L 640.5,419.0 Z M 569.5,320.0 L 580.0,315.5 L 587.0,315.5 L 590.5,317.0 L 586.0,312.5 L 580.0,312.5 L 574.0,314.5 L 568.5,319.0 L 569.5,320.0 Z M 857.5,335.0 L 857.0,329.5 L 844.5,327.0 L 845.5,325.0 L 845.0,321.5 L 843.0,321.5 L 839.0,327.5 L 827.0,326.5 L 823.5,331.0 L 824.0,333.5 L 829.0,330.5 L 834.0,333.5 L 857.5,335.0 Z M 586.5,330.0 L 586.0,327.5 L 576.5,330.0 L 586.5,330.0 Z M 777.5,408.0 L 785.5,391.0 L 788.5,379.0 L 791.5,375.0 L 800.5,351.0 L 805.5,341.0 L 806.0,333.5 L 793.5,365.0 L 789.5,372.0 L 789.5,376.0 L 785.5,386.0 L 782.5,390.0 L 781.5,395.0 L 776.5,405.0 L 776.5,408.0 L 777.5,408.0 Z M 830.5,423.0 L 833.5,420.0 L 840.5,403.0 L 836.5,399.0 L 836.5,392.0 L 834.5,389.0 L 834.5,386.0 L 837.5,382.0 L 837.5,376.0 L 843.5,370.0 L 843.5,365.0 L 846.0,362.5 L 850.0,360.5 L 858.0,360.5 L 860.5,358.0 L 862.5,351.0 L 867.5,341.0 L 867.0,339.5 L 843.0,337.5 L 842.0,336.5 L 832.0,336.5 L 831.0,335.5 L 819.0,335.5 L 818.0,333.5 L 814.0,333.5 L 811.5,335.0 L 807.5,343.0 L 797.5,370.0 L 784.5,399.0 L 782.5,407.0 L 778.5,415.0 L 778.5,418.0 L 784.0,419.5 L 792.0,419.5 L 793.0,420.5 L 822.0,422.5 L 823.0,423.5 L 830.5,423.0 Z M 625.5,422.0 L 619.5,400.0 L 618.5,387.0 L 617.5,386.0 L 617.5,363.0 L 619.5,353.0 L 622.5,346.0 L 615.0,345.5 L 614.0,346.5 L 605.0,346.5 L 596.0,348.5 L 591.5,352.0 L 589.5,356.0 L 589.5,366.0 L 602.5,421.0 L 604.0,422.5 L 625.5,422.0 Z M 692.5,446.0 L 704.0,442.5 L 718.0,435.5 L 737.0,423.5 L 755.0,408.5 L 761.0,408.5 L 774.0,399.5 L 777.5,392.0 L 776.0,390.5 L 771.5,390.0 L 778.0,388.5 L 781.5,382.0 L 773.0,381.5 L 772.0,380.5 L 771.0,381.5 L 770.5,380.0 L 783.0,377.5 L 785.5,371.0 L 767.5,370.0 L 775.0,367.5 L 785.0,366.5 L 789.5,363.0 L 789.5,360.0 L 777.0,359.5 L 761.0,362.5 L 753.5,369.0 L 745.5,385.0 L 741.0,389.5 L 721.0,398.5 L 688.0,409.5 L 686.0,405.5 L 676.0,407.5 L 661.0,414.5 L 654.5,419.0 L 661.0,426.5 L 668.0,429.5 L 674.5,436.0 L 677.5,443.0 L 680.0,445.5 L 683.0,446.5 L 692.5,446.0 Z M 867.5,374.0 L 870.0,373.5 L 872.5,371.0 L 872.5,367.0 L 871.0,365.5 L 850.0,365.5 L 847.5,368.0 L 847.5,370.0 L 853.0,373.5 L 867.5,374.0 Z M 524.5,433.0 L 528.0,432.5 L 529.5,431.0 L 528.5,429.0 L 529.0,374.5 L 521.5,375.0 L 520.5,386.0 L 519.5,387.0 L 519.5,398.0 L 518.5,399.0 L 519.5,433.0 L 524.5,433.0 Z M 560.5,427.0 L 560.5,419.0 L 561.5,418.0 L 561.5,378.0 L 560.5,375.0 L 559.0,374.5 L 557.5,376.0 L 557.5,387.0 L 556.5,388.0 L 556.5,408.0 L 557.5,409.0 L 557.5,427.0 L 560.5,427.0 Z M 864.5,384.0 L 868.5,382.0 L 869.5,380.0 L 869.0,376.5 L 845.0,374.5 L 842.5,377.0 L 842.5,380.0 L 846.0,382.5 L 859.0,383.5 L 860.0,384.5 L 864.5,384.0 Z M 861.5,393.0 L 863.5,392.0 L 865.5,388.0 L 865.0,386.5 L 855.0,386.5 L 849.0,384.5 L 841.0,384.5 L 839.5,387.0 L 840.5,390.0 L 843.0,391.5 L 853.0,392.5 L 854.0,393.5 L 861.5,393.0 Z M 858.5,400.0 L 860.0,396.5 L 849.0,395.5 L 848.0,394.5 L 841.5,395.0 L 841.5,398.0 L 843.0,399.5 L 847.0,400.5 L 858.5,400.0 Z M 591.5,425.0 L 592.5,424.0 L 591.5,423.0 L 591.5,418.0 L 588.0,404.5 L 587.5,425.0 L 591.5,425.0 Z M 798.5,428.0 L 795.0,426.5 L 772.0,423.5 L 768.5,418.0 L 769.0,411.5 L 764.0,414.5 L 761.0,414.5 L 747.5,425.0 L 748.0,426.5 L 780.0,426.5 L 789.0,428.5 L 798.5,428.0 Z M 855.5,433.0 L 865.0,427.5 L 869.0,426.5 L 869.5,425.0 L 862.0,418.5 L 856.0,415.5 L 849.0,413.5 L 843.0,413.5 L 838.5,426.0 L 847.0,427.5 L 855.5,433.0 Z M 818.5,555.0 L 823.5,551.0 L 830.5,528.0 L 840.5,512.0 L 851.0,502.5 L 868.0,494.5 L 877.0,492.5 L 902.0,493.5 L 909.0,495.5 L 923.0,502.5 L 932.0,509.5 L 978.0,509.5 L 979.0,508.5 L 1001.0,508.5 L 1002.0,507.5 L 1022.0,507.5 L 1026.0,506.5 L 1031.5,499.0 L 1031.5,492.0 L 1028.5,484.0 L 1020.5,472.0 L 1009.0,460.5 L 994.0,449.5 L 973.0,438.5 L 965.0,436.5 L 962.0,434.5 L 947.0,430.5 L 937.0,429.5 L 936.0,428.5 L 928.0,428.5 L 927.0,427.5 L 909.0,427.5 L 908.0,428.5 L 900.0,428.5 L 884.0,431.5 L 874.0,434.5 L 859.0,441.5 L 849.0,449.5 L 838.5,461.0 L 823.5,487.0 L 815.5,507.0 L 806.5,540.0 L 803.0,547.5 L 760.0,547.5 L 756.5,519.0 L 749.5,493.0 L 742.0,485.5 L 737.0,486.5 L 733.5,490.0 L 733.5,503.0 L 734.5,504.0 L 734.5,512.0 L 735.5,513.0 L 736.5,529.0 L 737.5,530.0 L 738.5,552.0 L 740.0,553.5 L 777.0,554.5 L 778.0,555.5 L 818.5,555.0 Z M 825.5,431.0 L 813.0,428.5 L 804.5,429.0 L 805.0,430.5 L 810.0,430.5 L 811.0,431.5 L 825.5,431.0 Z M 674.5,475.0 L 670.5,449.0 L 668.5,444.0 L 663.0,437.5 L 657.0,434.5 L 648.0,432.5 L 607.5,433.0 L 610.0,437.5 L 615.0,438.5 L 649.0,439.5 L 658.0,442.5 L 660.5,445.0 L 664.5,453.0 L 669.5,475.0 L 674.5,475.0 Z M 733.5,551.0 L 730.5,513.0 L 728.5,503.0 L 728.0,487.5 L 725.0,486.5 L 620.0,486.5 L 617.0,485.5 L 611.5,481.0 L 607.5,473.0 L 595.5,440.0 L 592.0,434.5 L 589.0,435.5 L 561.0,436.5 L 560.0,437.5 L 533.0,440.5 L 514.0,444.5 L 492.0,452.5 L 482.5,461.0 L 476.5,471.0 L 467.5,495.0 L 461.5,518.0 L 462.0,522.5 L 479.0,521.5 L 491.0,506.5 L 507.0,496.5 L 521.0,492.5 L 543.0,492.5 L 552.0,494.5 L 565.0,500.5 L 571.0,504.5 L 582.5,516.0 L 589.5,528.0 L 596.0,548.5 L 615.0,547.5 L 616.0,546.5 L 663.0,546.5 L 664.0,547.5 L 687.0,547.5 L 688.0,548.5 L 713.0,549.5 L 723.0,551.5 L 733.5,551.0 Z M 800.5,525.0 L 802.5,509.0 L 803.5,508.0 L 803.5,483.0 L 802.5,482.0 L 802.5,472.0 L 801.5,471.0 L 800.5,459.0 L 797.5,451.0 L 791.0,444.5 L 780.0,440.5 L 762.0,439.5 L 761.0,440.5 L 748.0,440.5 L 747.0,441.5 L 730.0,443.5 L 730.0,445.5 L 755.0,446.5 L 774.0,450.5 L 779.5,463.0 L 784.0,479.5 L 784.5,464.0 L 782.5,456.0 L 784.0,455.5 L 790.5,461.0 L 796.5,490.0 L 798.5,514.0 L 799.5,515.0 L 799.5,525.0 L 800.5,525.0 Z M 571.5,568.0 L 573.5,565.0 L 576.5,553.0 L 575.5,538.0 L 571.5,527.0 L 567.5,521.0 L 560.0,513.5 L 550.0,507.5 L 540.0,504.5 L 521.0,505.5 L 506.5,513.0 L 509.0,513.5 L 513.0,511.5 L 524.0,510.5 L 525.0,509.5 L 535.0,510.5 L 542.0,512.5 L 553.0,518.5 L 561.5,527.0 L 568.5,539.0 L 571.5,550.0 L 571.5,565.0 L 570.5,566.0 L 570.5,568.0 L 571.5,568.0 Z M 923.5,570.0 L 927.5,559.0 L 927.5,543.0 L 925.5,535.0 L 920.5,525.0 L 914.0,517.5 L 904.0,510.5 L 893.0,506.5 L 877.0,506.5 L 864.0,510.5 L 857.5,515.0 L 858.0,516.5 L 868.0,512.5 L 881.0,511.5 L 894.0,514.5 L 907.0,522.5 L 914.5,531.0 L 919.5,540.0 L 923.5,557.0 L 923.5,564.0 L 922.5,565.0 L 922.5,570.0 L 923.5,570.0 Z M 1039.5,570.0 L 1044.5,553.0 L 1043.0,530.5 L 1048.5,541.0 L 1051.0,560.5 L 1055.5,556.0 L 1056.5,545.0 L 1054.5,536.0 L 1049.5,526.0 L 1042.0,519.5 L 1034.0,519.5 L 1030.5,521.0 L 1030.5,523.0 L 1035.5,532.0 L 1038.5,543.0 L 1038.5,548.0 L 1039.5,549.0 L 1038.5,570.0 L 1039.5,570.0 Z M 936.5,573.0 L 938.5,570.0 L 941.5,558.0 L 941.5,547.0 L 938.5,536.0 L 932.0,525.5 L 931.5,527.0 L 935.5,536.0 L 937.5,546.0 L 937.5,566.0 L 935.5,572.0 L 936.5,573.0 Z M 533.5,580.0 L 541.0,577.5 L 549.5,570.0 L 554.5,559.0 L 554.5,550.0 L 550.5,539.0 L 542.0,530.5 L 536.0,527.5 L 525.0,526.5 L 515.0,530.5 L 507.5,537.0 L 502.5,547.0 L 502.5,560.0 L 506.5,569.0 L 514.0,576.5 L 524.0,580.5 L 533.5,580.0 Z M 883.5,582.0 L 888.0,581.5 L 894.0,578.5 L 901.5,571.0 L 905.5,563.0 L 905.5,549.0 L 901.5,540.0 L 895.0,533.5 L 887.0,529.5 L 877.0,528.5 L 866.0,532.5 L 857.5,541.0 L 853.5,551.0 L 853.5,560.0 L 857.5,570.0 L 866.0,578.5 L 876.0,582.5 L 883.5,582.0 Z M 1000.5,544.0 L 1002.5,542.0 L 1002.5,537.0 L 998.0,533.5 L 957.5,537.0 L 961.0,544.5 L 1000.5,544.0 Z M 623.5,592.0 L 623.0,590.5 L 615.0,586.5 L 605.5,577.0 L 602.0,571.5 L 595.5,585.0 L 589.5,591.0 L 590.0,592.5 L 623.5,592.0 Z M 846.5,591.0 L 839.5,583.0 L 834.0,571.5 L 786.0,572.5 L 785.0,573.5 L 713.0,573.5 L 712.0,572.5 L 699.0,572.5 L 695.5,578.0 L 689.0,584.5 L 678.5,591.0 L 846.5,591.0 Z M 968.5,593.0 L 960.5,585.0 L 954.0,572.5 L 952.5,573.0 L 952.5,576.0 L 947.5,586.0 L 942.5,592.0 L 943.0,593.5 L 968.5,593.0 Z M 542.0,209.5 L 540.5,208.0 L 543.5,197.0 L 537.5,194.0 L 536.5,186.0 L 541.0,181.5 L 547.0,181.5 L 552.5,187.0 L 552.5,194.0 L 549.5,200.0 L 542.0,209.5 Z M 744.0,305.5 L 737.0,305.5 L 732.0,303.5 L 718.0,304.5 L 707.5,301.0 L 710.0,300.5 L 714.0,302.5 L 726.0,302.5 L 732.0,299.5 L 736.0,302.5 L 744.0,304.5 L 744.0,305.5 Z M 532.0,563.5 L 526.0,563.5 L 522.0,561.5 L 518.5,557.0 L 519.5,548.0 L 526.0,543.5 L 533.0,544.5 L 537.5,549.0 L 538.5,552.0 L 537.5,558.0 L 532.0,563.5 Z M 883.0,565.5 L 875.0,564.5 L 870.5,560.0 L 869.5,557.0 L 870.5,551.0 L 877.0,545.5 L 885.0,546.5 L 889.5,552.0 L 889.5,559.0 L 883.0,565.5 Z M 650.0,730.5 L 636.0,729.5 L 619.5,725.0 L 620.0,703.5 L 623.5,704.0 L 626.5,712.0 L 633.0,719.5 L 642.0,724.5 L 654.0,723.5 L 659.5,719.0 L 661.5,714.0 L 660.5,708.0 L 655.0,701.5 L 631.0,688.5 L 624.5,683.0 L 620.5,676.0 L 619.5,666.0 L 622.5,658.0 L 629.0,651.5 L 641.0,647.5 L 652.0,647.5 L 659.0,649.5 L 666.0,649.5 L 671.5,653.0 L 671.0,670.5 L 667.0,670.5 L 663.5,663.0 L 656.0,655.5 L 651.0,653.5 L 639.0,654.5 L 633.5,662.0 L 634.5,668.0 L 640.0,673.5 L 666.0,687.5 L 672.5,694.0 L 675.5,701.0 L 675.5,712.0 L 670.5,721.0 L 662.0,727.5 L 650.0,730.5 Z M 426.0,728.5 L 389.5,728.0 L 391.0,724.5 L 396.0,723.5 L 399.5,719.0 L 399.5,656.0 L 392.0,655.5 L 384.0,658.5 L 378.5,665.0 L 376.5,672.0 L 373.0,672.5 L 374.0,650.5 L 442.5,651.0 L 442.0,672.5 L 439.5,672.0 L 437.5,666.0 L 431.0,658.5 L 423.0,655.5 L 418.0,655.5 L 415.5,658.0 L 415.5,718.0 L 420.0,723.5 L 426.0,725.5 L 426.0,728.5 Z M 811.0,728.5 L 782.0,728.5 L 783.0,725.5 L 785.0,725.5 L 788.5,723.0 L 788.5,718.0 L 784.0,709.5 L 762.0,709.5 L 758.5,718.0 L 758.5,722.0 L 761.0,724.5 L 766.0,725.5 L 766.5,728.0 L 745.5,728.0 L 746.0,725.5 L 749.0,724.5 L 752.5,721.0 L 755.5,715.0 L 775.0,665.5 L 781.0,665.5 L 782.5,667.0 L 801.5,716.0 L 805.0,722.5 L 807.0,724.5 L 811.5,726.0 L 811.0,728.5 Z M 782.5,705.0 L 775.5,684.0 L 773.0,681.5 L 765.5,699.0 L 764.5,705.0 L 782.5,705.0 Z M 517.0,728.5 L 488.5,728.0 L 489.0,725.5 L 494.0,724.5 L 496.5,721.0 L 496.0,698.5 L 470.5,699.0 L 470.5,723.0 L 474.0,725.5 L 477.0,725.5 L 477.0,728.5 L 449.0,728.5 L 450.0,725.5 L 454.0,724.5 L 456.5,721.0 L 456.5,673.0 L 453.0,669.5 L 449.0,669.5 L 448.5,667.0 L 477.0,666.5 L 477.0,669.5 L 473.0,669.5 L 470.5,672.0 L 470.5,693.0 L 472.0,694.5 L 495.0,694.5 L 496.5,693.0 L 496.5,673.0 L 493.0,669.5 L 489.0,669.5 L 488.5,667.0 L 517.0,666.5 L 517.5,669.0 L 513.0,669.5 L 509.5,675.0 L 510.5,679.0 L 510.5,723.0 L 514.0,725.5 L 517.0,725.5 L 517.0,728.5 Z M 583.0,728.5 L 526.5,728.0 L 527.0,725.5 L 530.0,725.5 L 534.5,722.0 L 534.5,673.0 L 533.0,670.5 L 528.0,669.5 L 528.0,666.5 L 580.5,667.0 L 579.5,668.0 L 580.5,670.0 L 580.0,682.5 L 577.0,682.5 L 574.5,676.0 L 571.0,672.5 L 566.0,670.5 L 550.0,670.5 L 548.5,672.0 L 549.0,694.5 L 557.0,694.5 L 561.0,692.5 L 564.5,686.0 L 567.5,685.0 L 567.5,708.0 L 564.5,708.0 L 562.5,702.0 L 560.0,699.5 L 558.0,698.5 L 549.0,698.5 L 548.5,721.0 L 552.0,724.5 L 567.0,724.5 L 574.0,721.5 L 579.5,715.0 L 580.5,711.0 L 583.0,710.5 L 583.0,728.5 Z M 730.0,728.5 L 699.5,728.0 L 700.0,725.5 L 704.0,725.5 L 708.5,720.0 L 708.5,673.0 L 707.0,670.5 L 698.0,670.5 L 690.5,677.0 L 688.5,683.0 L 686.0,683.5 L 686.0,666.5 L 743.5,667.0 L 744.5,672.0 L 744.0,683.5 L 741.5,683.0 L 739.5,678.0 L 735.0,672.5 L 730.0,670.5 L 723.0,670.5 L 721.5,672.0 L 721.5,720.0 L 724.0,724.5 L 730.0,725.5 L 730.0,728.5 Z M 885.0,728.5 L 865.0,728.5 L 847.0,701.5 L 841.5,702.0 L 840.5,719.0 L 841.5,723.0 L 845.0,725.5 L 848.0,725.5 L 848.5,728.0 L 820.0,728.5 L 819.5,726.0 L 825.0,724.5 L 827.5,720.0 L 827.5,674.0 L 825.0,670.5 L 820.0,669.5 L 819.5,667.0 L 860.0,666.5 L 870.0,669.5 L 874.5,674.0 L 876.5,678.0 L 876.5,688.0 L 872.0,694.5 L 867.0,697.5 L 862.0,698.5 L 861.5,700.0 L 866.5,705.0 L 874.5,718.0 L 881.0,724.5 L 885.5,726.0 L 885.0,728.5 Z M 850.5,697.0 L 856.0,695.5 L 860.5,691.0 L 861.5,689.0 L 861.5,678.0 L 856.0,671.5 L 842.0,670.5 L 840.5,676.0 L 840.5,696.0 L 842.0,697.5 L 850.5,697.0 Z M 936.0,728.5 L 905.5,728.0 L 907.0,725.5 L 912.0,724.5 L 914.5,721.0 L 914.5,672.0 L 913.0,670.5 L 902.0,671.5 L 896.5,677.0 L 895.5,682.0 L 892.0,683.5 L 892.0,666.5 L 950.5,667.0 L 950.0,683.5 L 946.5,682.0 L 945.5,678.0 L 941.0,672.5 L 937.0,670.5 L 928.5,671.0 L 928.5,694.0 L 927.5,695.0 L 928.5,711.0 L 927.5,712.0 L 927.5,717.0 L 928.5,722.0 L 933.0,725.5 L 936.0,725.5 L 936.0,728.5 Z M 1019.0,728.5 L 962.5,728.0 L 963.0,725.5 L 967.0,725.5 L 970.5,722.0 L 970.5,673.0 L 967.0,669.5 L 963.0,669.5 L 963.0,666.5 L 1015.5,667.0 L 1015.0,682.5 L 1012.5,682.0 L 1010.0,675.5 L 1003.0,670.5 L 985.5,671.0 L 984.5,673.0 L 984.5,694.0 L 994.0,694.5 L 996.0,693.5 L 999.5,690.0 L 1000.5,685.0 L 1003.0,684.5 L 1003.5,708.0 L 1000.5,708.0 L 999.5,703.0 L 996.0,699.5 L 994.0,698.5 L 985.0,698.5 L 984.5,720.0 L 987.0,724.5 L 1004.0,724.5 L 1010.0,721.5 L 1015.5,715.0 L 1016.5,711.0 L 1019.0,710.5 L 1019.0,728.5 Z M 1099.0,728.5 L 1079.0,728.5 L 1061.0,701.5 L 1054.5,702.0 L 1054.5,720.0 L 1058.0,724.5 L 1063.0,725.5 L 1062.5,728.0 L 1034.0,728.5 L 1033.5,726.0 L 1039.0,724.5 L 1041.5,720.0 L 1041.5,674.0 L 1038.0,669.5 L 1034.0,669.5 L 1033.5,667.0 L 1073.0,666.5 L 1081.0,668.5 L 1086.0,671.5 L 1088.5,674.0 L 1090.5,679.0 L 1090.5,687.0 L 1088.5,691.0 L 1084.0,695.5 L 1075.5,699.0 L 1088.5,718.0 L 1095.0,724.5 L 1099.5,726.0 L 1099.0,728.5 Z M 1065.5,697.0 L 1070.0,695.5 L 1073.5,692.0 L 1075.5,687.0 L 1075.5,679.0 L 1073.0,674.5 L 1067.0,670.5 L 1056.0,670.5 L 1054.5,672.0 L 1054.5,696.0 L 1056.0,697.5 L 1065.5,697.0 Z" fill="#1f364a" fill-rule="evenodd"/>
<path d="M 889.0,420.5 L 885.0,420.5 L 877.0,411.5 L 869.5,408.0 L 883.5,398.0 L 891.5,382.0 L 891.5,371.0 L 889.5,366.0 L 881.0,357.5 L 870.5,353.0 L 875.5,340.0 L 875.5,334.0 L 871.0,329.5 L 864.0,329.5 L 860.0,325.5 L 853.0,324.5 L 850.0,317.5 L 843.0,315.5 L 838.0,317.5 L 834.0,322.5 L 808.0,322.5 L 801.5,328.0 L 796.5,343.0 L 791.0,352.5 L 773.0,335.5 L 750.5,324.0 L 761.5,311.0 L 766.5,299.0 L 768.5,280.0 L 773.5,268.0 L 773.5,262.0 L 769.5,259.0 L 769.5,257.0 L 779.0,256.5 L 787.5,251.0 L 787.5,246.0 L 783.0,240.5 L 775.0,235.5 L 764.5,232.0 L 761.0,221.5 L 882.5,222.0 L 920.5,417.0 L 904.0,417.5 L 889.0,420.5 Z M 628.0,334.5 L 615.5,334.0 L 625.5,225.0 L 627.0,223.5 L 661.0,223.5 L 655.5,241.0 L 656.5,260.0 L 653.5,266.0 L 653.5,274.0 L 658.5,287.0 L 669.5,296.0 L 669.5,301.0 L 660.0,313.5 L 643.0,322.5 L 628.0,334.5 Z M 727.0,498.5 L 727.0,488.5 L 727.0,498.5 Z M 844.0,590.5 L 681.5,590.0 L 688.0,586.5 L 700.0,573.5 L 790.0,574.5 L 834.0,572.5 L 844.0,590.5 Z M 620.0,591.5 L 591.5,591.0 L 598.5,582.0 L 602.0,573.5 L 608.5,582.0 L 620.0,591.5 Z M 965.0,592.5 L 943.5,592.0 L 947.5,588.0 L 954.0,574.5 L 965.0,592.5 Z M 851.0,696.5 L 841.5,696.0 L 843.0,671.5 L 856.0,672.5 L 860.5,679.0 L 859.5,691.0 L 851.0,696.5 Z M 1065.0,696.5 L 1055.5,696.0 L 1055.5,673.0 L 1057.0,671.5 L 1067.0,671.5 L 1071.0,673.5 L 1074.5,679.0 L 1074.5,687.0 L 1072.5,692.0 L 1065.0,696.5 Z M 772.0,704.5 L 765.5,703.0 L 773.0,683.5 L 781.5,703.0 L 772.0,704.5 Z M 545.0,778.5 L 539.0,778.5 L 534.5,774.0 L 535.5,767.0 L 540.0,763.5 L 547.0,765.5 L 548.5,768.0 L 548.5,775.0 L 545.0,778.5 Z M 727.0,770.5 L 720.0,770.5 L 719.5,764.0 L 728.0,764.5 L 728.5,769.0 L 727.0,770.5 Z M 676.0,770.5 L 670.0,769.5 L 669.5,765.0 L 678.0,764.5 L 679.5,768.0 L 676.0,770.5 Z M 774.0,770.5 L 767.0,770.5 L 766.5,765.0 L 775.0,764.5 L 776.5,768.0 L 774.0,770.5 Z M 960.0,769.5 L 952.0,769.5 L 951.5,765.0 L 960.0,764.5 L 961.5,767.0 L 960.0,769.5 Z M 830.0,773.5 L 825.5,773.0 L 828.0,767.5 L 830.0,773.5 Z" fill="#ffffff" fill-rule="evenodd"/>
</svg>